<mxfile host="app.diagrams.net" modified="2022-11-21T06:25:17.198Z" agent="5.0 (Windows NT 10.0; Win64; x64) AppleWebKit/537.36 (KHTML, like Gecko) Chrome/107.0.0.0 Safari/537.36" etag="yUZ7_fdfGep_KsH7VaVv" version="20.2.7" type="github">
  <diagram id="pGtNmfsDfd9eHsm0Jx_r" name="第 1 页">
    <mxGraphModel dx="382" dy="1816" grid="1" gridSize="10" guides="1" tooltips="1" connect="1" arrows="1" fold="1" page="1" pageScale="1" pageWidth="827" pageHeight="1169" math="0" shadow="0">
      <root>
        <mxCell id="0" />
        <mxCell id="1" parent="0" />
        <mxCell id="RXvTVDFdT3mIjJHLsAJZ-12" value="" style="rounded=1;whiteSpace=wrap;html=1;absoluteArcSize=1;arcSize=14;strokeWidth=2;dashed=1;dashPattern=1 2;fillColor=#b1ddf0;strokeColor=none;fontSize=14;fontStyle=1" vertex="1" parent="1">
          <mxGeometry x="870" y="380" width="300" height="120" as="geometry" />
        </mxCell>
        <mxCell id="RXvTVDFdT3mIjJHLsAJZ-32" value="" style="verticalLabelPosition=bottom;verticalAlign=top;html=1;shape=mxgraph.basic.layered_rect;dx=10;outlineConnect=0;fontSize=14;strokeColor=#d79b00;strokeWidth=1;fillColor=#ffe6cc;" vertex="1" parent="1">
          <mxGeometry x="990" y="120" width="630" height="120" as="geometry" />
        </mxCell>
        <mxCell id="RXvTVDFdT3mIjJHLsAJZ-89" style="edgeStyle=orthogonalEdgeStyle;rounded=0;orthogonalLoop=1;jettySize=auto;html=1;dashed=1;fontSize=12;fontColor=#333333;strokeColor=#FF00FF;" edge="1" parent="1" source="RXvTVDFdT3mIjJHLsAJZ-28" target="RXvTVDFdT3mIjJHLsAJZ-47">
          <mxGeometry relative="1" as="geometry">
            <Array as="points">
              <mxPoint x="1500" y="290" />
              <mxPoint x="1090" y="290" />
            </Array>
          </mxGeometry>
        </mxCell>
        <mxCell id="RXvTVDFdT3mIjJHLsAJZ-28" value="IngressPort:80" style="strokeWidth=1;html=1;shape=mxgraph.flowchart.terminator;whiteSpace=wrap;fontSize=14;strokeColor=#FFB366;" vertex="1" parent="1">
          <mxGeometry x="1440" y="155" width="120" height="40" as="geometry" />
        </mxCell>
        <mxCell id="RXvTVDFdT3mIjJHLsAJZ-31" value="&lt;font style=&quot;font-size: 12px;&quot; color=&quot;#333333&quot;&gt;Node&lt;/font&gt;" style="text;html=1;strokeColor=none;fillColor=none;align=center;verticalAlign=middle;whiteSpace=wrap;rounded=0;fontSize=16;fontStyle=1;fontColor=#FFB570;" vertex="1" parent="1">
          <mxGeometry x="990" y="200" width="60" height="30" as="geometry" />
        </mxCell>
        <mxCell id="RXvTVDFdT3mIjJHLsAJZ-84" style="edgeStyle=orthogonalEdgeStyle;rounded=0;orthogonalLoop=1;jettySize=auto;html=1;entryX=0.5;entryY=0;entryDx=0;entryDy=0;dashed=1;fontSize=12;fontColor=#333333;strokeColor=#FF00FF;entryPerimeter=0;" edge="1" parent="1" source="RXvTVDFdT3mIjJHLsAJZ-29" target="RXvTVDFdT3mIjJHLsAJZ-46">
          <mxGeometry relative="1" as="geometry" />
        </mxCell>
        <mxCell id="RXvTVDFdT3mIjJHLsAJZ-29" value="NodePort:30001" style="strokeWidth=1;html=1;shape=mxgraph.flowchart.terminator;whiteSpace=wrap;fontSize=14;strokeColor=#FFB366;" vertex="1" parent="1">
          <mxGeometry x="1050" y="155" width="120" height="40" as="geometry" />
        </mxCell>
        <mxCell id="RXvTVDFdT3mIjJHLsAJZ-42" value="NodePort:30002" style="strokeWidth=1;html=1;shape=mxgraph.flowchart.terminator;whiteSpace=wrap;fontSize=14;strokeColor=#FFB366;" vertex="1" parent="1">
          <mxGeometry x="1250" y="155" width="120" height="40" as="geometry" />
        </mxCell>
        <mxCell id="RXvTVDFdT3mIjJHLsAJZ-45" value="&lt;font color=&quot;#333333&quot; style=&quot;font-size: 12px;&quot;&gt;Web Service&lt;/font&gt;" style="text;html=1;strokeColor=none;fillColor=none;align=center;verticalAlign=middle;whiteSpace=wrap;rounded=0;fontSize=12;fontStyle=1;fontColor=#FFB570;" vertex="1" parent="1">
          <mxGeometry x="871" y="466" width="89" height="30" as="geometry" />
        </mxCell>
        <mxCell id="RXvTVDFdT3mIjJHLsAJZ-46" value="NodePort:30001" style="strokeWidth=1;html=1;shape=mxgraph.flowchart.terminator;whiteSpace=wrap;fontSize=14;strokeColor=#FFB366;" vertex="1" parent="1">
          <mxGeometry x="890" y="415" width="120" height="40" as="geometry" />
        </mxCell>
        <mxCell id="RXvTVDFdT3mIjJHLsAJZ-47" value="ClusterPort:80" style="strokeWidth=1;html=1;shape=mxgraph.flowchart.terminator;whiteSpace=wrap;fontSize=14;strokeColor=#FFB366;" vertex="1" parent="1">
          <mxGeometry x="1030" y="415" width="120" height="40" as="geometry" />
        </mxCell>
        <mxCell id="RXvTVDFdT3mIjJHLsAJZ-48" value="" style="rounded=1;whiteSpace=wrap;html=1;absoluteArcSize=1;arcSize=14;strokeWidth=2;dashed=1;dashPattern=1 2;fillColor=#b1ddf0;strokeColor=none;fontSize=14;fontStyle=1" vertex="1" parent="1">
          <mxGeometry x="1280" y="390" width="300" height="120" as="geometry" />
        </mxCell>
        <mxCell id="RXvTVDFdT3mIjJHLsAJZ-49" value="&lt;font color=&quot;#333333&quot; style=&quot;font-size: 12px;&quot;&gt;Booking Service&lt;/font&gt;" style="text;html=1;strokeColor=none;fillColor=none;align=center;verticalAlign=middle;whiteSpace=wrap;rounded=0;fontSize=12;fontStyle=1;fontColor=#FFB570;" vertex="1" parent="1">
          <mxGeometry x="1281" y="476" width="109" height="30" as="geometry" />
        </mxCell>
        <mxCell id="RXvTVDFdT3mIjJHLsAJZ-50" value="NodePort:30002" style="strokeWidth=1;html=1;shape=mxgraph.flowchart.terminator;whiteSpace=wrap;fontSize=14;strokeColor=#FFB366;" vertex="1" parent="1">
          <mxGeometry x="1300" y="425" width="120" height="40" as="geometry" />
        </mxCell>
        <mxCell id="RXvTVDFdT3mIjJHLsAJZ-51" value="ClusterPort:80" style="strokeWidth=1;html=1;shape=mxgraph.flowchart.terminator;whiteSpace=wrap;fontSize=14;strokeColor=#FFB366;" vertex="1" parent="1">
          <mxGeometry x="1440" y="425" width="120" height="40" as="geometry" />
        </mxCell>
        <mxCell id="RXvTVDFdT3mIjJHLsAJZ-52" value="" style="rounded=1;whiteSpace=wrap;html=1;absoluteArcSize=1;arcSize=14;strokeWidth=2;dashed=1;dashPattern=1 2;fillColor=#b1ddf0;strokeColor=none;fontSize=14;fontStyle=1" vertex="1" parent="1">
          <mxGeometry x="1720" y="380" width="300" height="120" as="geometry" />
        </mxCell>
        <mxCell id="RXvTVDFdT3mIjJHLsAJZ-53" value="&lt;font color=&quot;#333333&quot; style=&quot;font-size: 12px;&quot;&gt;Api Service&lt;/font&gt;" style="text;html=1;strokeColor=none;fillColor=none;align=center;verticalAlign=middle;whiteSpace=wrap;rounded=0;fontSize=12;fontStyle=1;fontColor=#FFB570;" vertex="1" parent="1">
          <mxGeometry x="1721" y="466" width="79" height="30" as="geometry" />
        </mxCell>
        <mxCell id="RXvTVDFdT3mIjJHLsAJZ-54" value="ClusterPort:80" style="strokeWidth=1;html=1;shape=mxgraph.flowchart.terminator;whiteSpace=wrap;fontSize=14;strokeColor=#FFB366;" vertex="1" parent="1">
          <mxGeometry x="1740" y="415" width="120" height="40" as="geometry" />
        </mxCell>
        <mxCell id="RXvTVDFdT3mIjJHLsAJZ-55" value="ClusterPort:9000" style="strokeWidth=1;html=1;shape=mxgraph.flowchart.terminator;whiteSpace=wrap;fontSize=14;strokeColor=#FFB366;" vertex="1" parent="1">
          <mxGeometry x="1880" y="415" width="120" height="40" as="geometry" />
        </mxCell>
        <mxCell id="RXvTVDFdT3mIjJHLsAJZ-61" value="" style="verticalLabelPosition=bottom;verticalAlign=top;html=1;shape=mxgraph.basic.layered_rect;dx=10;outlineConnect=0;fontSize=14;strokeColor=#b85450;strokeWidth=1;fillColor=#f8cecc;" vertex="1" parent="1">
          <mxGeometry x="870" y="610" width="300" height="120" as="geometry" />
        </mxCell>
        <mxCell id="RXvTVDFdT3mIjJHLsAJZ-63" value="&lt;font style=&quot;font-size: 12px;&quot; color=&quot;#333333&quot;&gt;Pod&lt;/font&gt;" style="text;html=1;strokeColor=none;fillColor=none;align=center;verticalAlign=middle;whiteSpace=wrap;rounded=0;fontSize=16;fontStyle=1;fontColor=#FFB570;" vertex="1" parent="1">
          <mxGeometry x="890" y="690" width="40" height="30" as="geometry" />
        </mxCell>
        <mxCell id="RXvTVDFdT3mIjJHLsAJZ-64" value="NodePort:30001" style="strokeWidth=1;html=1;shape=mxgraph.flowchart.terminator;whiteSpace=wrap;fontSize=14;strokeColor=#FFB366;" vertex="1" parent="1">
          <mxGeometry x="890" y="630" width="120" height="40" as="geometry" />
        </mxCell>
        <mxCell id="RXvTVDFdT3mIjJHLsAJZ-72" value="" style="verticalLabelPosition=bottom;verticalAlign=top;html=1;shape=mxgraph.basic.layered_rect;dx=10;outlineConnect=0;fontSize=14;strokeColor=#b85450;strokeWidth=1;fillColor=#f8cecc;" vertex="1" parent="1">
          <mxGeometry x="1720" y="605" width="300" height="120" as="geometry" />
        </mxCell>
        <mxCell id="RXvTVDFdT3mIjJHLsAJZ-73" value="&lt;font style=&quot;font-size: 12px;&quot; color=&quot;#333333&quot;&gt;Pod&lt;/font&gt;" style="text;html=1;strokeColor=none;fillColor=none;align=center;verticalAlign=middle;whiteSpace=wrap;rounded=0;fontSize=16;fontStyle=1;fontColor=#FFB570;" vertex="1" parent="1">
          <mxGeometry x="1723" y="685" width="40" height="30" as="geometry" />
        </mxCell>
        <mxCell id="RXvTVDFdT3mIjJHLsAJZ-74" value="Port:80" style="strokeWidth=1;html=1;shape=mxgraph.flowchart.terminator;whiteSpace=wrap;fontSize=14;strokeColor=#FFB366;" vertex="1" parent="1">
          <mxGeometry x="1761" y="640" width="78" height="40" as="geometry" />
        </mxCell>
        <mxCell id="RXvTVDFdT3mIjJHLsAJZ-79" style="edgeStyle=orthogonalEdgeStyle;rounded=0;orthogonalLoop=1;jettySize=auto;html=1;fontSize=12;fontColor=#333333;" edge="1" parent="1" source="RXvTVDFdT3mIjJHLsAJZ-75" target="RXvTVDFdT3mIjJHLsAJZ-74">
          <mxGeometry relative="1" as="geometry" />
        </mxCell>
        <mxCell id="RXvTVDFdT3mIjJHLsAJZ-75" value="Port:9000" style="strokeWidth=1;html=1;shape=mxgraph.flowchart.terminator;whiteSpace=wrap;fontSize=14;strokeColor=#FFB366;" vertex="1" parent="1">
          <mxGeometry x="1901" y="640" width="78" height="40" as="geometry" />
        </mxCell>
        <mxCell id="RXvTVDFdT3mIjJHLsAJZ-80" value="nginx" style="text;html=1;strokeColor=none;fillColor=none;align=center;verticalAlign=middle;whiteSpace=wrap;rounded=0;fontSize=12;fontColor=#333333;" vertex="1" parent="1">
          <mxGeometry x="1844" y="630" width="60" height="30" as="geometry" />
        </mxCell>
        <mxCell id="RXvTVDFdT3mIjJHLsAJZ-82" style="edgeStyle=orthogonalEdgeStyle;rounded=0;orthogonalLoop=1;jettySize=auto;html=1;fontSize=12;fontColor=#333333;dashed=1;strokeColor=#FF00FF;" edge="1" parent="1" source="RXvTVDFdT3mIjJHLsAJZ-81" target="RXvTVDFdT3mIjJHLsAJZ-29">
          <mxGeometry relative="1" as="geometry" />
        </mxCell>
        <mxCell id="RXvTVDFdT3mIjJHLsAJZ-83" style="edgeStyle=orthogonalEdgeStyle;rounded=0;orthogonalLoop=1;jettySize=auto;html=1;entryX=0.5;entryY=0;entryDx=0;entryDy=0;entryPerimeter=0;fontSize=12;fontColor=#333333;strokeColor=#0000FF;dashed=1;" edge="1" parent="1" source="RXvTVDFdT3mIjJHLsAJZ-81" target="RXvTVDFdT3mIjJHLsAJZ-42">
          <mxGeometry relative="1" as="geometry" />
        </mxCell>
        <mxCell id="RXvTVDFdT3mIjJHLsAJZ-81" value="内网访问&lt;br&gt;NodeIp+Port" style="rounded=1;whiteSpace=wrap;html=1;fontSize=12;fontColor=#333333;strokeColor=#FFB366;strokeWidth=1;" vertex="1" parent="1">
          <mxGeometry x="1150" y="-180" width="120" height="60" as="geometry" />
        </mxCell>
        <mxCell id="RXvTVDFdT3mIjJHLsAJZ-86" style="edgeStyle=orthogonalEdgeStyle;rounded=0;orthogonalLoop=1;jettySize=auto;html=1;dashed=1;fontSize=12;fontColor=#333333;strokeColor=#FF00FF;" edge="1" parent="1" source="RXvTVDFdT3mIjJHLsAJZ-85" target="RXvTVDFdT3mIjJHLsAJZ-28">
          <mxGeometry relative="1" as="geometry" />
        </mxCell>
        <mxCell id="RXvTVDFdT3mIjJHLsAJZ-85" value="外网访问&lt;br&gt;域名访问" style="rounded=1;whiteSpace=wrap;html=1;fontSize=12;fontColor=#333333;strokeColor=#FFB366;strokeWidth=1;" vertex="1" parent="1">
          <mxGeometry x="1440" y="-180" width="120" height="60" as="geometry" />
        </mxCell>
        <mxCell id="RXvTVDFdT3mIjJHLsAJZ-90" style="edgeStyle=orthogonalEdgeStyle;rounded=0;orthogonalLoop=1;jettySize=auto;html=1;dashed=1;fontSize=12;fontColor=#333333;strokeColor=#FF00FF;" edge="1" parent="1" source="RXvTVDFdT3mIjJHLsAJZ-28" target="RXvTVDFdT3mIjJHLsAJZ-51">
          <mxGeometry relative="1" as="geometry" />
        </mxCell>
        <mxCell id="RXvTVDFdT3mIjJHLsAJZ-91" style="edgeStyle=orthogonalEdgeStyle;rounded=0;orthogonalLoop=1;jettySize=auto;html=1;entryX=0.5;entryY=0;entryDx=0;entryDy=0;entryPerimeter=0;dashed=1;fontSize=12;fontColor=#333333;strokeColor=#FF00FF;" edge="1" parent="1" source="RXvTVDFdT3mIjJHLsAJZ-42" target="RXvTVDFdT3mIjJHLsAJZ-50">
          <mxGeometry relative="1" as="geometry" />
        </mxCell>
        <mxCell id="RXvTVDFdT3mIjJHLsAJZ-94" style="edgeStyle=orthogonalEdgeStyle;rounded=0;orthogonalLoop=1;jettySize=auto;html=1;exitX=0.5;exitY=1;exitDx=0;exitDy=0;dashed=1;fontSize=12;fontColor=#333333;strokeColor=#FF00FF;exitPerimeter=0;" edge="1" parent="1" source="RXvTVDFdT3mIjJHLsAJZ-54" target="RXvTVDFdT3mIjJHLsAJZ-74">
          <mxGeometry relative="1" as="geometry" />
        </mxCell>
        <mxCell id="RXvTVDFdT3mIjJHLsAJZ-92" style="edgeStyle=orthogonalEdgeStyle;rounded=0;orthogonalLoop=1;jettySize=auto;html=1;entryX=0.5;entryY=0;entryDx=0;entryDy=0;entryPerimeter=0;dashed=1;fontSize=12;fontColor=#333333;strokeColor=#FF00FF;" edge="1" parent="1" source="RXvTVDFdT3mIjJHLsAJZ-55" target="RXvTVDFdT3mIjJHLsAJZ-75">
          <mxGeometry relative="1" as="geometry" />
        </mxCell>
        <mxCell id="RXvTVDFdT3mIjJHLsAJZ-97" style="edgeStyle=orthogonalEdgeStyle;rounded=0;orthogonalLoop=1;jettySize=auto;html=1;dashed=1;fontSize=12;fontColor=#333333;strokeColor=#FF00FF;" edge="1" parent="1" source="RXvTVDFdT3mIjJHLsAJZ-28" target="RXvTVDFdT3mIjJHLsAJZ-55">
          <mxGeometry relative="1" as="geometry">
            <Array as="points">
              <mxPoint x="1500" y="290" />
              <mxPoint x="1940" y="290" />
            </Array>
          </mxGeometry>
        </mxCell>
        <mxCell id="RXvTVDFdT3mIjJHLsAJZ-99" style="edgeStyle=orthogonalEdgeStyle;rounded=0;orthogonalLoop=1;jettySize=auto;html=1;entryX=0;entryY=0.5;entryDx=0;entryDy=0;entryPerimeter=0;dashed=1;fontSize=12;fontColor=#333333;strokeColor=#FF00FF;" edge="1" parent="1" source="RXvTVDFdT3mIjJHLsAJZ-98" target="RXvTVDFdT3mIjJHLsAJZ-54">
          <mxGeometry relative="1" as="geometry">
            <Array as="points">
              <mxPoint x="1090" y="870" />
              <mxPoint x="1670" y="870" />
              <mxPoint x="1670" y="435" />
            </Array>
          </mxGeometry>
        </mxCell>
        <mxCell id="RXvTVDFdT3mIjJHLsAJZ-98" value="API Nginx" style="strokeWidth=1;html=1;shape=mxgraph.flowchart.terminator;whiteSpace=wrap;fontSize=14;fillColor=none;strokeColor=#9AC7BF;" vertex="1" parent="1">
          <mxGeometry x="1050" y="670" width="80" height="40" as="geometry" />
        </mxCell>
        <mxCell id="RXvTVDFdT3mIjJHLsAJZ-107" style="edgeStyle=orthogonalEdgeStyle;rounded=0;orthogonalLoop=1;jettySize=auto;html=1;entryX=0.5;entryY=0;entryDx=0;entryDy=0;entryPerimeter=0;dashed=1;fontSize=12;fontColor=#333333;strokeColor=#FF00FF;" edge="1" parent="1" source="RXvTVDFdT3mIjJHLsAJZ-46" target="RXvTVDFdT3mIjJHLsAJZ-64">
          <mxGeometry relative="1" as="geometry" />
        </mxCell>
        <mxCell id="RXvTVDFdT3mIjJHLsAJZ-108" style="edgeStyle=orthogonalEdgeStyle;rounded=0;orthogonalLoop=1;jettySize=auto;html=1;dashed=1;fontSize=12;fontColor=#333333;strokeColor=#FF00FF;" edge="1" parent="1" source="RXvTVDFdT3mIjJHLsAJZ-47" target="RXvTVDFdT3mIjJHLsAJZ-64">
          <mxGeometry relative="1" as="geometry">
            <Array as="points">
              <mxPoint x="1090" y="650" />
            </Array>
          </mxGeometry>
        </mxCell>
        <mxCell id="RXvTVDFdT3mIjJHLsAJZ-109" value="" style="verticalLabelPosition=bottom;verticalAlign=top;html=1;shape=mxgraph.basic.layered_rect;dx=10;outlineConnect=0;fontSize=14;strokeColor=#b85450;strokeWidth=1;fillColor=#f8cecc;" vertex="1" parent="1">
          <mxGeometry x="1281" y="605" width="300" height="120" as="geometry" />
        </mxCell>
        <mxCell id="RXvTVDFdT3mIjJHLsAJZ-110" value="&lt;font style=&quot;font-size: 12px;&quot; color=&quot;#333333&quot;&gt;Pod&lt;/font&gt;" style="text;html=1;strokeColor=none;fillColor=none;align=center;verticalAlign=middle;whiteSpace=wrap;rounded=0;fontSize=16;fontStyle=1;fontColor=#FFB570;" vertex="1" parent="1">
          <mxGeometry x="1301" y="685" width="40" height="30" as="geometry" />
        </mxCell>
        <mxCell id="RXvTVDFdT3mIjJHLsAJZ-111" value="NodePort:30002" style="strokeWidth=1;html=1;shape=mxgraph.flowchart.terminator;whiteSpace=wrap;fontSize=14;strokeColor=#FFB366;" vertex="1" parent="1">
          <mxGeometry x="1301" y="625" width="120" height="40" as="geometry" />
        </mxCell>
        <mxCell id="RXvTVDFdT3mIjJHLsAJZ-113" style="edgeStyle=orthogonalEdgeStyle;rounded=0;orthogonalLoop=1;jettySize=auto;html=1;entryX=0;entryY=0.5;entryDx=0;entryDy=0;entryPerimeter=0;dashed=1;fontSize=12;fontColor=#333333;strokeColor=#FF00FF;" edge="1" parent="1" source="RXvTVDFdT3mIjJHLsAJZ-112" target="RXvTVDFdT3mIjJHLsAJZ-54">
          <mxGeometry relative="1" as="geometry">
            <Array as="points">
              <mxPoint x="1620" y="685" />
              <mxPoint x="1620" y="435" />
            </Array>
          </mxGeometry>
        </mxCell>
        <mxCell id="RXvTVDFdT3mIjJHLsAJZ-112" value="API Nginx" style="strokeWidth=1;html=1;shape=mxgraph.flowchart.terminator;whiteSpace=wrap;fontSize=14;fillColor=none;strokeColor=#9AC7BF;" vertex="1" parent="1">
          <mxGeometry x="1460" y="665" width="80" height="40" as="geometry" />
        </mxCell>
      </root>
    </mxGraphModel>
  </diagram>
</mxfile>
